<?xml version="1.0" standalone="no"?>
<!DOCTYPE svg PUBLIC "-//W3C//DTD SVG 20010904//EN"
 "http://www.w3.org/TR/2001/REC-SVG-20010904/DTD/svg10.dtd">
<svg version="1.0" xmlns="http://www.w3.org/2000/svg"
 width="1280.000000pt" height="1280.000000pt" viewBox="0 0 1280.000000 1280.000000"
 preserveAspectRatio="xMidYMid meet">
<metadata>
Created by potrace 1.15, written by Peter Selinger 2001-2017
</metadata>
<g transform="translate(0.000000,1280.000000) scale(0.100000,-0.100000)"
fill="#000000" stroke="none">
<path d="M4628 9493 l-3 -2408 -851 -5 -850 -5 1642 -2173 c903 -1195 1646
-2174 1651 -2175 4 0 748 978 1651 2174 l1644 2174 -851 3 -851 2 0 2410 0
2410 -1590 0 -1590 0 -2 -2407z"/>
<path d="M2140 1870 l0 -620 4310 0 4310 0 0 620 0 620 -4310 0 -4310 0 0
-620z"/>
</g>
</svg>
